<svg xmlns="http://www.w3.org/2000/svg" width="9" height="18" viewBox="0 0 9 18">
  <g id="Group_5498" data-name="Group 5498" transform="translate(-243 -276)">
    <g id="Polygon_38" data-name="Polygon 38" transform="translate(243 276)" fill="#CFD8DC">
      <path d="M 6.435229778289795 7.500001907348633 L 2.564769983291626 7.500001907348633 C 2.205590009689331 7.500001907348633 1.882889986038208 7.314891815185547 1.701560020446777 7.004841804504395 C 1.520230054855347 6.694791793823242 1.517099976539612 6.322792053222656 1.693199992179871 6.00974178314209 L 3.628429889678955 2.569331884384155 C 3.80797004699707 2.250151872634888 4.133790016174316 2.059591770172119 4.5 2.059591770172119 C 4.866209983825684 2.059591770172119 5.19202995300293 2.250151872634888 5.371570110321045 2.569331884384155 L 7.30679988861084 6.00974178314209 C 7.482900142669678 6.322792053222656 7.479770183563232 6.694791793823242 7.298439979553223 7.004841804504395 C 7.117109775543213 7.314891815185547 6.794410228729248 7.500001907348633 6.435229778289795 7.500001907348633 Z" stroke="none"/>
      <path d="M 4.5 2.559591770172119 C 4.412079811096191 2.559591770172119 4.193610191345215 2.584421634674072 4.064219951629639 2.814461708068848 L 2.128980159759521 6.254881858825684 C 2.00206995010376 6.480491638183594 2.089630126953125 6.677981853485107 2.133170127868652 6.752421855926514 C 2.176700115203857 6.82686185836792 2.305910110473633 7.000001907348633 2.564770221710205 7.000001907348633 L 6.435230255126953 7.000001907348633 C 6.694089889526367 7.000001907348633 6.823299884796143 6.82686185836792 6.866829872131348 6.752421855926514 C 6.910369873046875 6.677981853485107 6.99793004989624 6.480491638183594 6.871009826660156 6.254871845245361 L 4.935790061950684 2.814461708068848 C 4.806389808654785 2.584431648254395 4.587920188903809 2.559591770172119 4.5 2.559591770172119 M 4.5 1.559591770172119 C 5.010317802429199 1.559591770172119 5.520634651184082 1.814461708068848 5.80735969543457 2.324202060699463 L 7.742589950561523 5.764612197875977 C 8.30504035949707 6.764512062072754 7.582469940185547 8.000001907348633 6.435230255126953 8.000001907348633 L 2.564770221710205 8.000001907348633 C 1.417530059814453 8.000001907348633 0.6949596405029297 6.764512062072754 1.257410049438477 5.764612197875977 L 3.192639827728271 2.324202060699463 C 3.47936487197876 1.814461708068848 3.989682674407959 1.559591770172119 4.5 1.559591770172119 Z" stroke="none" fill="#707070"/>
    </g>
    <g id="Polygon_39" data-name="Polygon 39" transform="translate(252 294) rotate(180)" fill="#fff">
      <path d="M 6.435229778289795 7.500001907348633 L 2.564769983291626 7.500001907348633 C 2.205590009689331 7.500001907348633 1.882889986038208 7.314891815185547 1.701560020446777 7.004841804504395 C 1.520230054855347 6.694791793823242 1.517099976539612 6.322792053222656 1.693199992179871 6.00974178314209 L 3.628429889678955 2.569331884384155 C 3.80797004699707 2.250151872634888 4.133790016174316 2.059591770172119 4.5 2.059591770172119 C 4.866209983825684 2.059591770172119 5.19202995300293 2.250151872634888 5.371570110321045 2.569331884384155 L 7.30679988861084 6.00974178314209 C 7.482900142669678 6.322792053222656 7.479770183563232 6.694791793823242 7.298439979553223 7.004841804504395 C 7.117109775543213 7.314891815185547 6.794410228729248 7.500001907348633 6.435229778289795 7.500001907348633 Z" stroke="none"/>
      <path d="M 4.5 2.559591770172119 C 4.412079811096191 2.559591770172119 4.193610191345215 2.584421634674072 4.064219951629639 2.814461708068848 L 2.128980159759521 6.254881858825684 C 2.00206995010376 6.480491638183594 2.089630126953125 6.677981853485107 2.133170127868652 6.752421855926514 C 2.176700115203857 6.82686185836792 2.305910110473633 7.000001907348633 2.564770221710205 7.000001907348633 L 6.435230255126953 7.000001907348633 C 6.694089889526367 7.000001907348633 6.823299884796143 6.82686185836792 6.866829872131348 6.752421855926514 C 6.910369873046875 6.677981853485107 6.99793004989624 6.480491638183594 6.871009826660156 6.254871845245361 L 4.935790061950684 2.814461708068848 C 4.806389808654785 2.584431648254395 4.587920188903809 2.559591770172119 4.5 2.559591770172119 M 4.5 1.559591770172119 C 5.010317802429199 1.559591770172119 5.520634651184082 1.814461708068848 5.80735969543457 2.324202060699463 L 7.742589950561523 5.764612197875977 C 8.30504035949707 6.764512062072754 7.582469940185547 8.000001907348633 6.435230255126953 8.000001907348633 L 2.564770221710205 8.000001907348633 C 1.417530059814453 8.000001907348633 0.6949596405029297 6.764512062072754 1.257410049438477 5.764612197875977 L 3.192639827728271 2.324202060699463 C 3.47936487197876 1.814461708068848 3.989682674407959 1.559591770172119 4.5 1.559591770172119 Z" stroke="none" fill="#707070"/>
    </g>
  </g>
</svg>
